#!OML:ASF F:\VICON\USERDATA\INSTALL\rory3\rory3.ASF
:FULLY-SPECIFIED
:DEGREES
782
root 2.66051 17.2813 -8.68988 14.2249 17.2286 -2.73309
lowerback 20.9654 1.21125 -3.95694
upperback 8.58817 0.942921 0.590066
thorax -2.45038 0.416226 2.66538
lowerneck -13.55 -2.51663 -11.3941
upperneck 24.2535 -1.38652 3.00408
head 10.1035 -1.29501 2.81061
rclavicle 3.81667e-014 -8.74653e-015
rhumerus -4.42741 19.0936 -84.4468
rradius 46.1579
rwrist 11.782
rhand -29.1428 -7.09067
rfingers 7.12502
rthumb -2.48959 -37.0559
lclavicle 3.81667e-014 -8.74653e-015
lhumerus -14.7308 -21.7385 89.6931
lradius 56.4305
lwrist 18.8446
lhand -10.2678 41.4442
lfingers 7.12502
lthumb 15.7257 70.8253
rfemur -49.0186 -16.7248 25.1705
rtibia 57.0667
rfoot -20.7664 -13.5733
rtoes 3.36196
lfemur -43.4561 -4.06223 -14.5959
ltibia 40.1525
lfoot -10.0329 -14.3708
ltoes -6.61591
783
root 2.62631 17.2889 -8.6892 13.8589 17.8102 -2.82529
lowerback 20.7447 1.15834 -3.91514
upperback 8.52193 0.893417 0.59908
thorax -2.40679 0.39368 2.66352
lowerneck -13.7022 -2.5517 -11.6369
upperneck 24.2555 -1.41821 3.24759
head 10.1396 -1.30358 2.93394
rclavicle -5.1684e-015 3.85642e-014
rhumerus -4.84361 18.2722 -84.9555
rradius 46.9508
rwrist 11.3692
rhand -30.4787 -7.24505
rfingers 7.12502
rthumb -3.77979 -37.1913
lclavicle -5.1684e-015 3.85642e-014
lhumerus -14.3987 -20.9785 89.6614
lradius 56.4631
lwrist 22.7706
lhand -11.3992 40.368
lfingers 7.12502
lthumb 14.6359 69.8315
rfemur -48.1436 -16.7452 25.0323
rtibia 57.7094
rfoot -20.8593 -13.5148
rtoes 3.43844
lfemur -43.0788 -4.17587 -14.4359
ltibia 39.8333
lfoot -9.83249 -14.814
ltoes -6.44563
784
root 2.59165 17.3027 -8.68764 13.4463 18.4252 -2.9068
lowerback 20.5847 1.08583 -3.85485
upperback 8.44505 0.817724 0.573668
thorax -2.40284 0.360156 2.61952
lowerneck -13.8502 -2.54678 -11.7378
upperneck 24.3487 -1.41131 3.42644
head 10.2023 -1.29147 3.01729
rclavicle 3.57812e-015 -1.23246e-014
rhumerus -5.07234 17.6428 -85.2907
rradius 47.6674
rwrist 11.0971
rhand -32.1836 -6.93999
rfingers 7.12502
rthumb -5.426 -36.8505
lclavicle 3.57812e-015 -1.23246e-014
lhumerus -14.1573 -20.2879 89.6477
lradius 56.5095
lwrist 26.7193
lhand -12.2547 40.3711
lfingers 7.12502
lthumb 13.8115 69.8926
rfemur -47.1382 -16.7651 24.8659
rtibia 58.2762
rfoot -21.0781 -13.2427
rtoes 3.66407
lfemur -42.6436 -4.45982 -14.217
ltibia 39.5291
lfoot -9.57111 -15.0866
ltoes -6.31524
785
root 2.5524 17.3171 -8.68761 13.085 18.9468 -2.96318
lowerback 20.4089 1.05047 -3.96042
upperback 8.33828 0.759301 0.573884
thorax -2.42487 0.331976 2.69325
lowerneck -13.9227 -2.55543 -11.7824
upperneck 24.3571 -1.41684 3.48383
head 10.2203 -1.29146 3.04472
rclavicle -2.78299e-015 -9.93923e-015
rhumerus -5.58587 17.017 -85.8506
rradius 48.5804
rwrist 10.9813
rhand -33.9688 -6.64424
rfingers 7.12502
rthumb -7.14946 -36.5035
lclavicle -2.78299e-015 -9.93923e-015
lhumerus -13.999 -19.4349 89.6888
lradius 56.5449
lwrist 30.1985
lhand -12.9431 40.8563
lfingers 7.12502
lthumb 13.148 70.4217
rfemur -46.1869 -16.6795 24.6953
rtibia 58.7773
rfoot -21.1717 -13.1695
rtoes 3.39258
lfemur -42.2376 -4.67375 -14.0263
ltibia 39.203
lfoot -9.32721 -15.3027
ltoes -6.20895
786
root 2.51266 17.3289 -8.68744 12.8699 19.4117 -2.95198
lowerback 20.159 1.05033 -4.0875
upperback 8.1813 0.741601 0.529978
thorax -2.46565 0.324962 2.72315
lowerneck -13.8901 -2.62757 -11.9516
upperneck 24.2645 -1.5261 3.66309
head 10.1927 -1.33384 3.12175
rclavicle 2.78299e-015 -2.34566e-014
rhumerus -6.11438 16.539 -86.4532
rradius 49.5376
rwrist 10.2055
rhand -35.605 -7.09418
rfingers 7.12502
rthumb -8.72868 -36.8937
lclavicle 2.78299e-015 -2.34566e-014
lhumerus -13.8096 -18.6719 89.7584
lradius 56.5817
lwrist 33.1796
lhand -13.5169 40.7554
lfingers 7.12502
lthumb 12.5949 70.3557
rfemur -45.3784 -16.6295 24.5142
rtibia 59.1948
rfoot -21.092 -13.1471
rtoes 3.09368
lfemur -41.9223 -4.7888 -13.9375
ltibia 38.8346
lfoot -9.18568 -15.5862
ltoes -6.71087
787
root 2.47561 17.3427 -8.68533 12.6714 19.9053 -2.86011
lowerback 19.9244 1.06835 -4.12459
upperback 7.99065 0.758885 0.408201
thorax -2.55172 0.339472 2.61095
lowerneck -13.7075 -2.73396 -12.0884
upperneck 24.1623 -1.70395 3.81992
head 10.139 -1.40734 3.17667
rclavicle -1.43125e-014 -1.35174e-014
rhumerus -6.57267 16.0509 -87.0516
rradius 50.3809
rwrist 8.9235
rhand -37.2463 -7.41243
rfingers 7.12502
rthumb -10.3122 -37.1396
lclavicle -1.43125e-014 -1.35174e-014
lhumerus -13.6039 -18.3444 89.92
lradius 56.5727
lwrist 36.2295
lhand -14.8942 40.8698
lfingers 7.12502
lthumb 11.2668 70.5472
rfemur -44.4981 -16.6504 24.2461
rtibia 59.5272
rfoot -21.105 -13.0444
rtoes 2.98911
lfemur -41.5751 -4.98958 -13.9147
ltibia 38.4444
lfoot -8.99553 -15.8614
ltoes -7.16873
788
root 2.43672 17.3622 -8.68216 12.4725 20.4479 -2.83872
lowerback 19.493 1.06252 -4.14074
upperback 7.97022 0.766606 0.34197
thorax -2.35305 0.341158 2.55029
lowerneck -14.362 -2.7026 -11.7372
upperneck 24.6703 -1.55104 3.42857
head 10.4313 -1.36057 3.00471
rclavicle 6.87795e-014 -6.75868e-015
rhumerus -6.67548 15.6133 -87.6459
rradius 51.1598
rwrist 7.57289
rhand -38.8603 -7.55739
rfingers 7.12502
rthumb -11.8689 -37.201
lclavicle 6.87795e-014 -6.75868e-015
lhumerus -13.0683 -18.1355 90.0956
lradius 56.5585
lwrist 39.4477
lhand -17.1008 40.7427
lfingers 7.12502
lthumb 9.13807 70.5247
rfemur -43.6169 -16.6561 24.1054
rtibia 59.7466
rfoot -21.0581 -13.195
rtoes 1.70649
lfemur -41.2749 -5.23206 -13.7853
ltibia 38.0453
lfoot -8.78418 -16.1383
ltoes -7.50861
789
root 2.39658 17.3732 -8.67932 12.2153 21.0403 -2.85909
lowerback 19.2046 1.00974 -4.12911
upperback 7.92998 0.713123 0.305241
thorax -2.24412 0.314855 2.5173
lowerneck -14.6985 -2.73312 -11.754
upperneck 24.7783 -1.54804 3.44791
head 10.5362 -1.3601 3.01618
rclavicle -8.0309e-014 1.90833e-014
rhumerus -6.79924 15.3167 -88.3854
rradius 51.9072
rwrist 6.31157
rhand -40.51 -8.04588
rfingers 7.12502
rthumb -13.4594 -37.591
lclavicle -8.0309e-014 1.90833e-014
lhumerus -12.5304 -17.6543 90.2898
lradius 56.4285
lwrist 41.7325
lhand -18.3933 39.9829
lfingers 7.12502
lthumb 7.89075 69.8156
rfemur -42.6511 -16.699 24.009
rtibia 59.8594
rfoot -21.0135 -13.2602
rtoes 1.15458
lfemur -40.9743 -5.44999 -13.6356
ltibia 37.6688
lfoot -8.51721 -16.4527
ltoes -7.53509
790
root 2.35351 17.3836 -8.67529 11.9067 21.6593 -3.09456
lowerback 18.9714 0.954192 -3.92927
upperback 7.79459 0.683024 0.299854
thorax -2.26725 0.306253 2.40503
lowerneck -14.6944 -2.76947 -11.8568
upperneck 24.6739 -1.6264 3.64729
head 10.5052 -1.37918 3.09346
rclavicle -2.94201e-014 -7.15625e-015
rhumerus -7.10525 15.0188 -89.1887
rradius 52.8414
rwrist 4.75493
rhand -41.903 -8.58605
rfingers 7.12502
rthumb -14.8017 -38.0375
lclavicle -2.94201e-014 -7.15625e-015
lhumerus -12.0636 -17.151 90.5139
lradius 56.1893
lwrist 43.305
lhand -21.3272 42.669
lfingers 7.12502
lthumb 5.05845 72.5886
rfemur -41.6395 -16.6991 24.1458
rtibia 59.8881
rfoot -21.044 -13.2527
rtoes 1.705
lfemur -40.7321 -5.49617 -13.3059
ltibia 37.3179
lfoot -8.18487 -16.8919
ltoes -7.11136
791
root 2.30886 17.3984 -8.66799 11.5654 22.2091 -3.57196
lowerback 18.5821 0.919962 -3.62123
upperback 7.6957 0.707071 0.363586
thorax -2.17447 0.322032 2.29466
lowerneck -14.6972 -2.76574 -11.8048
upperneck 24.5309 -1.64544 3.68368
head 10.4535 -1.37475 3.09285
rclavicle 4.65156e-014 -2.90226e-014
rhumerus -7.29854 14.9141 -89.8284
rradius 53.916
rwrist 2.81575
rhand -42.7368 -8.62647
rfingers 7.12502
rthumb -15.6049 -38.017
lclavicle 4.65156e-014 -2.90226e-014
lhumerus -11.5224 -16.5603 90.7877
lradius 55.9547
lwrist 44.6684
lhand -22.9486 43.8298
lfingers 7.12502
lthumb 3.49271 73.7809
rfemur -40.6329 -16.581 24.5555
rtibia 59.8589
rfoot -21.3172 -13.2578
rtoes 2.66451
lfemur -40.5141 -5.38198 -12.7333
ltibia 36.9702
lfoot -7.94967 -17.366
ltoes -6.70216
